<?xml version="1.0" encoding="utf-8"?>
<!-- Generator: Adobe Illustrator 26.0.0, SVG Export Plug-In . SVG Version: 6.00 Build 0)  -->
<svg version="1.1" id="Layer_1" xmlns="http://www.w3.org/2000/svg" xmlns:xlink="http://www.w3.org/1999/xlink" x="0px" y="0px"
	 viewBox="0 0 1920 1080" style="enable-background:new 0 0 1920 1080;" xml:space="preserve">
<style type="text/css">
	.st0{stroke:#000000;stroke-width:10;}
</style>
<g>
	<g>
		<g>
			<path d="M965.8,188.4v9.8c-10.5,1-18.4,3.4-23.8,7.1c-5.4,3.8-9.1,9.6-11,17.6c-2,8-2.9,19.3-2.9,34v135.7
				c0,21.9-1.4,41.5-4.2,58.8c-2.8,17.3-8.1,32.3-15.9,45.1c-8.2,13.7-20.3,24.7-36.5,33.1s-35.8,12.5-59,12.5
				c-15.7,0-31.1-1.8-46.3-5.4c-15.2-3.6-28.5-10.3-39.9-20.1c-10.1-8.5-18-18.1-23.8-28.9c-5.7-10.8-9.6-23.8-11.5-38.9
				c-2-15.2-2.9-33.4-2.9-54.6V240.3c0-12.1-0.9-21-2.7-26.7c-1.8-5.7-5.4-9.6-10.8-11.8c-5.4-2.1-13.5-3.3-24.2-3.7v-9.8
				c8.2,0.3,18.6,0.7,31.3,1c12.7,0.3,26.4,0.5,41.1,0.5c13.4,0,26.6-0.2,39.7-0.5c13.1-0.3,23.8-0.7,32.3-1v9.8
				c-11.1,0.3-19.5,1.6-25.2,3.7c-5.7,2.1-9.6,6-11.5,11.8c-2,5.7-2.9,14.6-2.9,26.7v177.3c0,16.3,1.1,31.1,3.2,44.3
				c2.1,13.2,5.7,24.6,10.8,34c5.1,9.5,12.2,16.7,21.6,21.6c9.3,4.9,21.1,7.3,35.5,7.3c23.8,0,42.3-5.4,55.3-16.2
				c13.1-10.8,22.2-25.8,27.4-45.1c5.2-19.3,7.8-41.1,7.8-65.6V260.8c0-16-1.1-28.2-3.4-36.7c-2.3-8.5-6.8-14.7-13.5-18.6
				c-6.7-3.9-16.6-6.4-29.6-7.3v-9.8c6.2,0.3,14.3,0.7,24.2,1c10,0.3,19.2,0.5,27.7,0.5c8.2,0,16.2-0.2,24.2-0.5
				C954.4,189,960.9,188.7,965.8,188.4z"/>
		</g>
	</g>
	<path class="st0" d="M823.4,717.5h-20.5c-1.1,0-2-0.9-2-2V542c0-1.1,0.9-2,2-2h20.5c1.1,0,2,0.9,2,2v173.5
		C825.4,716.6,824.5,717.5,823.4,717.5z"/>
	<path class="st0" d="M719.5,947l-18.6-8.7c-1-0.5-1.4-1.7-1-2.7l101.8-218.3c0.5-1,1.7-1.4,2.7-1L823,725c1,0.5,1.4,1.7,1,2.7
		L722.1,946C721.7,947,720.5,947.5,719.5,947z"/>
	<path class="st0" d="M942.4,706.3l0,20.5c0,1.1-0.9,2-2,2H821.9c-1.1,0-2-0.9-2-2v-20.5c0-1.1,0.9-2,2-2h118.5
		C941.5,704.3,942.4,705.2,942.4,706.3z"/>
	<path class="st0" d="M940.4,821.1h-20.5c-1.1,0-2-0.9-2-2l0-94c0-1.1,0.9-2,2-2h20.5c1.1,0,2,0.9,2,2l0,94
		C942.4,820.2,941.5,821.1,940.4,821.1z"/>
	<path class="st0" d="M900,947.2h-20.5c-1.1,0-2-0.9-2-2l0-94c0-1.1,0.9-2,2-2H900c1.1,0,2,0.9,2,2l0,94
		C902,946.3,901.1,947.2,900,947.2z"/>
	<path class="st0" d="M994.5,851.2v20.5c0,1.1-0.9,2-2,2l-94,0c-1.1,0-2-0.9-2-2v-20.5c0-1.1,0.9-2,2-2l94,0
		C993.6,849.2,994.5,850.1,994.5,851.2z"/>
	<path class="st0" d="M992.6,855.8h-20.5c-1.1,0-2-0.9-2-2l0-94c0-1.1,0.9-2,2-2h20.5c1.1,0,2,0.9,2,2l0,94
		C994.6,854.9,993.7,855.8,992.6,855.8z"/>
	<path class="st0" d="M1085.5,759.8v20.5c0,1.1-0.9,2-2,2l-94,0c-1.1,0-2-0.9-2-2v-20.5c0-1.1,0.9-2,2-2l94,0
		C1084.6,757.8,1085.5,758.7,1085.5,759.8z"/>
	<path class="st0" d="M1083.4,765.3H1063c-1.1,0-2-0.9-2-2v-94c0-1.1,0.9-2,2-2l20.5,0c1.1,0,2,0.9,2,2l0,94
		C1085.4,764.4,1084.6,765.3,1083.4,765.3z"/>
	<path class="st0" d="M1178,669.3v20.5c0,1.1-0.9,2-2,2l-94,0c-1.1,0-2-0.9-2-2v-20.5c0-1.1,0.9-2,2-2l94,0
		C1177.1,667.3,1178,668.2,1178,669.3z"/>
	<path class="st0" d="M1176.1,673.9h-20.5c-1.1,0-2-0.9-2-2l0-94c0-1.1,0.9-2,2-2l20.5,0c1.1,0,2,0.9,2,2l0,94
		C1178.1,673,1177.2,673.9,1176.1,673.9z"/>
	<path class="st0" d="M1269,577.9v20.5c0,1.1-0.9,2-2,2l-94,0c-1.1,0-2-0.9-2-2v-20.5c0-1.1,0.9-2,2-2l94,0
		C1268.1,575.9,1269,576.8,1269,577.9z"/>
</g>
</svg>
