<?xml version="1.0" encoding="utf-8"?>
<!-- Generator: Adobe Illustrator 26.0.0, SVG Export Plug-In . SVG Version: 6.00 Build 0)  -->
<svg version="1.1" id="Layer_1" xmlns="http://www.w3.org/2000/svg" xmlns:xlink="http://www.w3.org/1999/xlink" x="0px" y="0px"
	 viewBox="0 0 640 781" style="enable-background:new 0 0 640 781;" xml:space="preserve">
<style type="text/css">
	.st0{stroke:#000000;stroke-width:10;}
</style>
<g>
	<g>
		<g>
			<path d="M325.8,9.4v9.8c-10.5,1-18.4,3.4-23.8,7.1c-5.4,3.8-9.1,9.6-11,17.6c-2,8-2.9,19.3-2.9,34v135.7
				c0,21.9-1.4,41.5-4.2,58.8c-2.8,17.3-8.1,32.3-15.9,45.1c-8.2,13.7-20.3,24.7-36.5,33.1s-35.8,12.5-59,12.5
				c-15.7,0-31.1-1.8-46.3-5.4c-15.2-3.6-28.5-10.3-39.9-20.1c-10.1-8.5-18-18.1-23.8-28.9c-5.7-10.8-9.6-23.8-11.5-38.9
				c-2-15.2-2.9-33.4-2.9-54.6V61.3c0-12.1-0.9-21-2.7-26.7c-1.8-5.7-5.4-9.6-10.8-11.8c-5.4-2.1-13.5-3.3-24.2-3.7V9.4
				c8.2,0.3,18.6,0.7,31.3,1c12.7,0.3,26.4,0.5,41.1,0.5c13.4,0,26.6-0.2,39.7-0.5c13.1-0.3,23.8-0.7,32.3-1v9.8
				c-11.1,0.3-19.5,1.6-25.2,3.7c-5.7,2.1-9.6,6-11.5,11.8c-2,5.7-2.9,14.6-2.9,26.7v177.3c0,16.3,1.1,31.1,3.2,44.3
				c2.1,13.2,5.7,24.6,10.8,34c5.1,9.5,12.2,16.7,21.6,21.6c9.3,4.9,21.1,7.3,35.5,7.3c23.8,0,42.3-5.4,55.3-16.2
				c13.1-10.8,22.2-25.8,27.4-45.1c5.2-19.3,7.8-41.1,7.8-65.6V81.8c0-16-1.1-28.2-3.4-36.7c-2.3-8.5-6.8-14.7-13.5-18.6
				c-6.7-3.9-16.6-6.4-29.6-7.3V9.4c6.2,0.3,14.3,0.7,24.2,1c10,0.3,19.2,0.5,27.7,0.5c8.2,0,16.2-0.2,24.2-0.5
				C314.4,10,320.9,9.7,325.8,9.4z"/>
		</g>
	</g>
	<path class="st0" d="M183.4,538.5h-20.5c-1.1,0-2-0.9-2-2V363c0-1.1,0.9-2,2-2h20.5c1.1,0,2,0.9,2,2v173.5
		C185.4,537.6,184.5,538.5,183.4,538.5z"/>
	<path class="st0" d="M79.5,768l-18.6-8.7c-1-0.5-1.4-1.7-1-2.7l101.8-218.3c0.5-1,1.7-1.4,2.7-1L183,546c1,0.5,1.4,1.7,1,2.7
		L82.1,767C81.7,768,80.5,768.5,79.5,768z"/>
	<path class="st0" d="M302.4,527.3v20.5c0,1.1-0.9,2-2,2H181.9c-1.1,0-2-0.9-2-2v-20.5c0-1.1,0.9-2,2-2h118.5
		C301.5,525.3,302.4,526.2,302.4,527.3z"/>
	<path class="st0" d="M300.4,642.1h-20.5c-1.1,0-2-0.9-2-2l0-94c0-1.1,0.9-2,2-2h20.5c1.1,0,2,0.9,2,2l0,94
		C302.4,641.2,301.5,642.1,300.4,642.1z"/>
	<path class="st0" d="M260,768.2h-20.5c-1.1,0-2-0.9-2-2l0-94c0-1.1,0.9-2,2-2H260c1.1,0,2,0.9,2,2l0,94
		C262,767.3,261.1,768.2,260,768.2z"/>
	<path class="st0" d="M354.5,672.2v20.5c0,1.1-0.9,2-2,2l-94,0c-1.1,0-2-0.9-2-2v-20.5c0-1.1,0.9-2,2-2l94,0
		C353.6,670.2,354.5,671.1,354.5,672.2z"/>
	<path class="st0" d="M352.6,676.8h-20.5c-1.1,0-2-0.9-2-2l0-94c0-1.1,0.9-2,2-2h20.5c1.1,0,2,0.9,2,2l0,94
		C354.6,675.9,353.7,676.8,352.6,676.8z"/>
	<path class="st0" d="M445.5,580.8l0,20.5c0,1.1-0.9,2-2,2l-94,0c-1.1,0-2-0.9-2-2v-20.5c0-1.1,0.9-2,2-2l94,0
		C444.6,578.8,445.5,579.7,445.5,580.8z"/>
	<path class="st0" d="M443.4,586.3H423c-1.1,0-2-0.9-2-2l0-94c0-1.1,0.9-2,2-2h20.5c1.1,0,2,0.9,2,2l0,94
		C445.4,585.4,444.6,586.3,443.4,586.3z"/>
	<path class="st0" d="M538,490.3v20.5c0,1.1-0.9,2-2,2l-94,0c-1.1,0-2-0.9-2-2v-20.5c0-1.1,0.9-2,2-2l94,0
		C537.1,488.3,538,489.2,538,490.3z"/>
	<path class="st0" d="M536.1,494.9h-20.5c-1.1,0-2-0.9-2-2l0-94c0-1.1,0.9-2,2-2h20.5c1.1,0,2,0.9,2,2l0,94
		C538.1,494,537.2,494.9,536.1,494.9z"/>
	<path class="st0" d="M629,398.9v20.5c0,1.1-0.9,2-2,2l-94,0c-1.1,0-2-0.9-2-2v-20.5c0-1.1,0.9-2,2-2l94,0
		C628.1,396.9,629,397.8,629,398.9z"/>
</g>
</svg>
