<?xml version="1.0" encoding="utf-8"?>
<!-- Generator: Adobe Illustrator 26.0.0, SVG Export Plug-In . SVG Version: 6.00 Build 0)  -->
<svg version="1.1" id="Layer_1" xmlns="http://www.w3.org/2000/svg" xmlns:xlink="http://www.w3.org/1999/xlink" x="0px" y="0px"
	 viewBox="0 0 1366 500" style="enable-background:new 0 0 1366 500;" xml:space="preserve">
<style type="text/css">
	.st0{fill:none;}
	.st1{stroke:#000000;stroke-width:10;}
</style>
<g>
	<g>
		<path d="M206.2,212c7.2,0,13.5,1.5,19,4.4c5.5,2.9,9.7,6.7,12.8,11.4c3.1,4.7,4.6,9.9,4.6,15.8c0,6.7-2.1,12.5-6.2,17.6
			c-4.1,5.1-9.7,7.6-16.6,7.6c-5.6,0-10.5-1.8-14.8-5.4c-4.3-3.6-6.4-8.7-6.4-15.4c0-5.1,1.4-9.4,4.2-13c2.8-3.6,5.9-6.5,9.4-8.6
			c-1.9-2.7-4.7-4-8.4-4c-8.3,0-15.9,2.5-22.8,7.4c-6.9,4.9-12.8,11.3-17.6,19c-4.8,7.7-8.5,15.9-11.2,24.6c-2.7,8.7-4,16.7-4,24.2
			v84.8c0,13.1,3.8,21.8,11.4,26.2c7.6,4.4,17.9,6.6,31,6.6v8.4c-6.1-0.3-14.8-0.6-26-1c-11.2-0.4-23.1-0.6-35.6-0.6
			c-9.1,0-18.1,0.2-27,0.6c-8.9,0.4-15.7,0.7-20.2,1v-8.4c10.9,0,18.7-2,23.4-6c4.7-4,7-11.6,7-22.8V261.2c0-12-2.1-20.9-6.4-26.6
			c-4.3-5.7-12.3-8.6-24-8.6v-8.4c8.5,0.8,16.8,1.2,24.8,1.2c7.7,0,15.1-0.5,22.2-1.4c7.1-0.9,13.5-2.3,19.4-4.2v50
			c2.9-7.7,7.1-15.5,12.6-23.4c5.5-7.9,12.1-14.5,19.8-19.8C188.3,214.7,196.9,212,206.2,212z"/>
		<path d="M326.2,213.2v173.2c0,11.2,2.3,18.8,7,22.8c4.7,4,12.5,6,23.4,6v8.4c-4.5-0.3-11.4-0.6-20.6-1c-9.2-0.4-18.5-0.6-27.8-0.6
			c-9.1,0-18.3,0.2-27.6,0.6c-9.3,0.4-16.3,0.7-20.8,1v-8.4c10.9,0,18.7-2,23.4-6c4.7-4,7-11.6,7-22.8V261.2c0-12-2.1-20.9-6.4-26.6
			c-4.3-5.7-12.3-8.6-24-8.6v-8.4c8.5,0.8,16.8,1.2,24.8,1.2c7.7,0,15.1-0.5,22.2-1.4C313.9,216.5,320.3,215.1,326.2,213.2z
			 M305.4,117.6c6.9,0,12.9,2.5,18,7.6c5.1,5.1,7.6,11.1,7.6,18c0,6.9-2.5,12.9-7.6,18c-5.1,5.1-11.1,7.6-18,7.6
			c-6.9,0-12.9-2.5-18-7.6c-5.1-5.1-7.6-11.1-7.6-18c0-6.9,2.5-12.9,7.6-18C292.5,120.1,298.5,117.6,305.4,117.6z"/>
		<path d="M441.4,151.2V218h59.2v8h-59.2v154.8c0,12.5,2.3,21.3,6.8,26.4c4.5,5.1,10.8,7.6,18.8,7.6s14.9-3.3,20.8-9.8
			c5.9-6.5,10.9-17.5,15.2-33l8,2c-2.7,15.5-7.9,28.5-15.8,39.2c-7.9,10.7-19.9,16-36.2,16c-9.1,0-16.5-1.1-22.4-3.4
			c-5.9-2.3-11.1-5.5-15.6-9.8c-5.9-6.1-9.9-13.5-12.2-22c-2.3-8.5-3.4-19.9-3.4-34V226H367v-8h38.4v-61.2
			c6.7-0.3,13.1-0.8,19.2-1.6C430.7,154.4,436.3,153.1,441.4,151.2z"/>
		<path d="M874.2,426.4c-10.9,0-20.4-2.1-28.4-6.2s-14.1-9.9-18.2-17.4c-4.1-7.5-6.2-16.1-6.2-26c0-11.7,2.7-21.3,8.2-28.8
			c5.5-7.5,12.5-13.5,21-18c8.5-4.5,17.5-8.3,27-11.4c9.5-3.1,18.5-6,27-8.8c8.5-2.8,15.5-6.1,21-9.8c5.5-3.7,8.2-8.7,8.2-14.8
			v-24.8c0-11.2-1.7-19.7-5-25.6c-3.3-5.9-7.8-9.8-13.4-11.8c-5.6-2-11.9-3-18.8-3c-6.7,0-13.8,0.9-21.4,2.8
			c-7.6,1.9-13.7,5.7-18.2,11.6c5.1,1.1,9.5,3.7,13.2,8c3.7,4.3,5.6,9.7,5.6,16.4c0,6.7-2.1,11.9-6.4,15.8
			c-4.3,3.9-9.7,5.8-16.4,5.8c-7.7,0-13.4-2.5-17-7.4c-3.6-4.9-5.4-10.5-5.4-16.6c0-6.9,1.7-12.5,5.2-16.8c3.5-4.3,7.9-8.3,13.2-12
			c6.1-4.3,14.1-7.9,23.8-11c9.7-3.1,20.7-4.6,33-4.6c10.9,0,20.3,1.3,28,3.8c7.7,2.5,14.1,6.2,19.2,11c6.9,6.4,11.5,14.2,13.6,23.4
			c2.1,9.2,3.2,20.2,3.2,33v111.2c0,6.7,1,11.5,3,14.4c2,2.9,5.1,4.4,9.4,4.4c2.9,0,5.7-0.7,8.4-2c2.7-1.3,5.9-3.5,9.6-6.4l4.4,6.8
			c-5.6,4.3-10.9,7.8-16,10.6c-5.1,2.8-11.9,4.2-20.4,4.2c-7.7,0-14.1-1.3-19.2-4c-5.1-2.7-8.9-6.6-11.4-11.8
			c-2.5-5.2-3.8-11.8-3.8-19.8c-7.2,12-15.8,20.9-25.8,26.8C898,423.5,886.7,426.4,874.2,426.4z M888.6,410.4c8.8,0,17-2.5,24.6-7.6
			c7.6-5.1,14.5-12.7,20.6-22.8v-78.4c-3.2,4.5-7.9,8.3-14,11.4c-6.1,3.1-12.8,6.1-20,9.2c-7.2,3.1-14.1,6.7-20.6,10.8
			c-6.5,4.1-11.9,9.5-16.2,16.2c-4.3,6.7-6.4,15.3-6.4,26c0,10.7,2.9,19.2,8.6,25.6C870.9,407.2,878.7,410.4,888.6,410.4z"/>
		<path d="M1080.2,110v276.4c0,11.2,2.3,18.8,7,22.8c4.7,4,12.5,6,23.4,6v8.4c-4.5-0.3-11.4-0.6-20.6-1c-9.2-0.4-18.5-0.6-27.8-0.6
			c-9.1,0-18.3,0.2-27.6,0.6c-9.3,0.4-16.3,0.7-20.8,1v-8.4c10.9,0,18.7-2,23.4-6c4.7-4,7-11.6,7-22.8V158c0-12-2.1-20.9-6.4-26.6
			c-4.3-5.7-12.3-8.6-24-8.6v-8.4c8.5,0.8,16.8,1.2,24.8,1.2c7.7,0,15.1-0.5,22.2-1.4C1067.8,113.3,1074.3,111.9,1080.2,110z"/>
		<path d="M1228.2,212c23.5,0,41.8,7.1,55,21.4c13.2,14.3,19.8,36.5,19.8,66.6h-141.2l-0.4-7.6h103.2c0.5-13.1-0.5-25.1-3.2-36.2
			c-2.7-11.1-6.9-19.9-12.6-26.6c-5.7-6.7-13.1-10-22.2-10c-12.3,0-23.1,6.1-32.6,18.4c-9.5,12.3-15.1,31.7-17,58.4l1.2,1.6
			c-0.5,4-0.9,8.4-1.2,13.2c-0.3,4.8-0.4,9.6-0.4,14.4c0,18.1,2.9,33.7,8.8,46.8c5.9,13.1,13.5,23,23,29.8
			c9.5,6.8,19.3,10.2,29.4,10.2c8,0,15.6-1.3,22.8-3.8c7.2-2.5,13.9-6.7,20-12.6c6.1-5.9,11.5-13.7,16-23.6l8,3.2
			c-2.9,8.8-7.7,17.3-14.4,25.6c-6.7,8.3-15.1,15-25.2,20.2c-10.1,5.2-21.9,7.8-35.2,7.8c-19.2,0-35.7-4.4-49.4-13.2
			c-13.7-8.8-24.3-21-31.6-36.6c-7.3-15.6-11-33.5-11-53.8c0-23.5,3.7-43.7,11.2-60.6c7.5-16.9,18-30,31.6-39.2
			C1194.2,216.6,1210,212,1228.2,212z"/>
	</g>
</g>
<rect x="1121.1" y="40.5" class="st0" width="2.7" height="0"/>
<g>
	<g>
		<g>
			<path d="M655.6,80.2v4.4c-4.7,0.4-8.3,1.5-10.7,3.2c-2.4,1.7-4.1,4.3-5,8c-0.9,3.6-1.3,8.7-1.3,15.3v61.2
				c0,9.9-0.6,18.7-1.9,26.5c-1.3,7.8-3.6,14.6-7.2,20.3c-3.7,6.2-9.2,11.2-16.5,14.9c-7.3,3.8-16.2,5.6-26.6,5.6
				c-7.1,0-14-0.8-20.9-2.4c-6.8-1.6-12.8-4.6-18-9.1c-4.6-3.8-8.1-8.2-10.7-13c-2.6-4.9-4.3-10.7-5.2-17.6s-1.3-15.1-1.3-24.6
				v-69.3c0-5.4-0.4-9.5-1.2-12c-0.8-2.6-2.4-4.3-4.9-5.3c-2.4-1-6.1-1.5-10.9-1.7v-4.4c3.7,0.1,8.4,0.3,14.1,0.4
				c5.7,0.1,11.9,0.2,18.6,0.2c6,0,12-0.1,17.9-0.2c5.9-0.1,10.7-0.3,14.6-0.4v4.4c-5,0.1-8.8,0.7-11.4,1.7c-2.6,1-4.3,2.7-5.2,5.3
				c-0.9,2.6-1.3,6.6-1.3,12v79.9c0,7.4,0.5,14,1.4,20c1,6,2.6,11.1,4.9,15.3c2.3,4.3,5.5,7.5,9.7,9.7c4.2,2.2,9.5,3.3,16,3.3
				c10.7,0,19.1-2.4,25-7.3c5.9-4.9,10-11.6,12.4-20.3c2.4-8.7,3.5-18.6,3.5-29.6v-61.8c0-7.2-0.5-12.7-1.5-16.6
				c-1-3.8-3.1-6.6-6.1-8.4c-3-1.8-7.5-2.9-13.4-3.3v-4.4c2.8,0.1,6.4,0.3,10.9,0.4c4.5,0.1,8.6,0.2,12.5,0.2
				c3.7,0,7.3-0.1,10.9-0.2C650.5,80.5,653.4,80.4,655.6,80.2z"/>
		</g>
	</g>
	<path class="st1" d="M590.3,318.8h-7c-1.1,0-2-0.9-2-2v-76c0-1.1,0.9-2,2-2h7c1.1,0,2,0.9,2,2v76
		C592.3,317.9,591.4,318.8,590.3,318.8z"/>
	<path class="st1" d="M543.6,421.8l-6.4-3c-1-0.5-1.4-1.7-1-2.7l45-96.5c0.5-1,1.7-1.4,2.7-1l6.4,3c1,0.5,1.4,1.7,1,2.7l-45,96.5
		C545.8,421.9,544.6,422.3,543.6,421.8z"/>
	<path class="st1" d="M645.1,314.9v7c0,1.1-0.9,2-2,2h-51.2c-1.1,0-2-0.9-2-2v-7c0-1.1,0.9-2,2-2h51.2
		C644.2,312.9,645.1,313.8,645.1,314.9z"/>
	<path class="st1" d="M643.1,365.5h-7c-1.1,0-2-0.9-2-2l0-40.2c0-1.1,0.9-2,2-2h7c1.1,0,2,0.9,2,2l0,40.2
		C645.1,364.6,644.2,365.5,643.1,365.5z"/>
	<path class="st1" d="M629.8,429.6h-7c-1.1,0-2-0.9-2-2l0-40.2c0-1.1,0.9-2,2-2h7c1.1,0,2,0.9,2,2l0,40.2
		C631.8,428.7,630.9,429.6,629.8,429.6z"/>
	<path class="st1" d="M673.6,387.4v7c0,1.1-0.9,2-2,2l-40.2,0c-1.1,0-2-0.9-2-2v-7c0-1.1,0.9-2,2-2l40.2,0
		C672.7,385.4,673.6,386.3,673.6,387.4z"/>
	<path class="st1" d="M671.6,388.4h-7c-1.1,0-2-0.9-2-2v-40.2c0-1.1,0.9-2,2-2h7c1.1,0,2,0.9,2,2v40.2
		C673.6,387.5,672.7,388.4,671.6,388.4z"/>
	<path class="st1" d="M714.6,346.2v7c0,1.1-0.9,2-2,2l-40.2,0c-1.1,0-2-0.9-2-2l0-7c0-1.1,0.9-2,2-2l40.2,0
		C713.7,344.2,714.6,345.1,714.6,346.2z"/>
	<path class="st1" d="M712.6,347.6h-7c-1.1,0-2-0.9-2-2l0-40.2c0-1.1,0.9-2,2-2l7,0c1.1,0,2,0.9,2,2l0,40.2
		C714.6,346.7,713.7,347.6,712.6,347.6z"/>
	<path class="st1" d="M756.3,305.4v7c0,1.1-0.9,2-2,2l-40.2,0c-1.1,0-2-0.9-2-2v-7c0-1.1,0.9-2,2-2l40.2,0
		C755.4,303.4,756.3,304.3,756.3,305.4z"/>
	<path class="st1" d="M754.3,306.4h-7c-1.1,0-2-0.9-2-2v-40.2c0-1.1,0.9-2,2-2h7c1.1,0,2,0.9,2,2l0,40.2
		C756.3,305.5,755.4,306.4,754.3,306.4z"/>
	<path class="st1" d="M797.3,264.2v7c0,1.1-0.9,2-2,2l-40.2,0c-1.1,0-2-0.9-2-2v-7c0-1.1,0.9-2,2-2l40.2,0
		C796.4,262.2,797.3,263.1,797.3,264.2z"/>
</g>
</svg>
